<svg xmlns="http://www.w3.org/2000/svg" viewBox="0 0 512 512">
  <defs>
    <linearGradient id="bg" x1="0" x2="1" y1="0" y2="1">
      <stop offset="0%" stop-color="#f8edd7"/>
      <stop offset="55%" stop-color="#ecd4a7"/>
      <stop offset="100%" stop-color="#d8b273"/>
    </linearGradient>
    <linearGradient id="tile" x1="0" x2="0" y1="0" y2="1">
      <stop offset="0%" stop-color="#ffffff"/>
      <stop offset="100%" stop-color="#f1e4d1"/>
    </linearGradient>
    <linearGradient id="center" x1="0" x2="0" y1="0" y2="1">
      <stop offset="0%" stop-color="#ffd979"/>
      <stop offset="100%" stop-color="#ffba3b"/>
    </linearGradient>
  </defs>
  <rect width="512" height="512" fill="url(#bg)"/>
  <g transform="translate(74 74)">
    <rect x="0" y="0" width="364" height="364" rx="96" fill="rgba(255,251,245,0.92)"/>
    <g fill="#15222f" font-family="Segoe UI, Trebuchet MS, sans-serif" font-weight="800" font-size="54" text-anchor="middle" dominant-baseline="middle">
      <rect x="36" y="46" width="82" height="82" rx="22" fill="url(#tile)"/>
      <text x="77" y="87">N</text>
      <rect x="141" y="46" width="82" height="82" rx="22" fill="url(#tile)"/>
      <text x="182" y="87">I</text>
      <rect x="246" y="46" width="82" height="82" rx="22" fill="url(#tile)"/>
      <text x="287" y="87">N</text>
      <rect x="36" y="151" width="82" height="82" rx="22" fill="url(#tile)"/>
      <text x="77" y="192">E</text>
      <rect x="141" y="151" width="82" height="82" rx="22" fill="url(#center)"/>
      <text x="182" y="192">L</text>
      <rect x="246" y="151" width="82" height="82" rx="22" fill="url(#tile)"/>
      <text x="287" y="192">T</text>
      <rect x="36" y="256" width="82" height="82" rx="22" fill="url(#tile)"/>
      <text x="77" y="297">T</text>
      <rect x="141" y="256" width="82" height="82" rx="22" fill="url(#tile)"/>
      <text x="182" y="297">E</text>
      <rect x="246" y="256" width="82" height="82" rx="22" fill="url(#tile)"/>
      <text x="287" y="297">R</text>
    </g>
  </g>
</svg>
