<svg xmlns="http://www.w3.org/2000/svg" viewBox="0 0 512 512">
  <defs>
    <linearGradient id="bg" x1="0" x2="1" y1="0" y2="1">
      <stop offset="0%" stop-color="#fff5df"/>
      <stop offset="55%" stop-color="#f0e0bf"/>
      <stop offset="100%" stop-color="#dfc79d"/>
    </linearGradient>
    <linearGradient id="tile" x1="0" x2="0" y1="0" y2="1">
      <stop offset="0%" stop-color="#ffffff"/>
      <stop offset="100%" stop-color="#f1e4d1"/>
    </linearGradient>
    <linearGradient id="center" x1="0" x2="0" y1="0" y2="1">
      <stop offset="0%" stop-color="#ffd979"/>
      <stop offset="100%" stop-color="#ffba3b"/>
    </linearGradient>
  </defs>
  <rect width="512" height="512" rx="120" fill="url(#bg)"/>
  <g transform="translate(64 64)">
    <rect x="0" y="0" width="384" height="384" rx="84" fill="rgba(255,251,245,0.84)"/>
    <g fill="#15222f" font-family="Segoe UI, Trebuchet MS, sans-serif" font-weight="800" font-size="56" text-anchor="middle" dominant-baseline="middle">
      <rect x="42" y="52" width="86" height="86" rx="24" fill="url(#tile)"/>
      <text x="85" y="96">N</text>
      <rect x="149" y="52" width="86" height="86" rx="24" fill="url(#tile)"/>
      <text x="192" y="96">I</text>
      <rect x="256" y="52" width="86" height="86" rx="24" fill="url(#tile)"/>
      <text x="299" y="96">N</text>
      <rect x="42" y="160" width="86" height="86" rx="24" fill="url(#tile)"/>
      <text x="85" y="204">E</text>
      <rect x="149" y="160" width="86" height="86" rx="24" fill="url(#center)"/>
      <text x="192" y="204">L</text>
      <rect x="256" y="160" width="86" height="86" rx="24" fill="url(#tile)"/>
      <text x="299" y="204">T</text>
      <rect x="42" y="268" width="86" height="86" rx="24" fill="url(#tile)"/>
      <text x="85" y="312">T</text>
      <rect x="149" y="268" width="86" height="86" rx="24" fill="url(#tile)"/>
      <text x="192" y="312">E</text>
      <rect x="256" y="268" width="86" height="86" rx="24" fill="url(#tile)"/>
      <text x="299" y="312">R</text>
    </g>
  </g>
</svg>
